<svg version="1.2" xmlns="http://www.w3.org/2000/svg" viewBox="0 0 426 33" width="426" height="33">
	<title>victoria-beauty-svg</title>
	<style>
		.s0 { fill: #000000 } 
	</style>
	<g id="Layer">
		<g id="Layer">
			<path id="Layer" fill-rule="evenodd" class="s0" d="m425.3 9.1h-0.6c-0.3-2.1-0.4-2.9-3.8-2.9h-5.4v20.9c0 4.4 0.5 4.8 3.6 4.8v0.8h-9.5v-0.6c2.4 0 2.8-1.1 2.8-4v-21.9h-4.8c-3.8 0-4.5 0.1-4.7 2.9h-0.8l-0.1-4.8c0 0 3.8 0.3 5.4 0.3h12.8c2.3 0 4 0 5.2-0.3zm-28.4 18.6v-0.1zm-0.1 4.8h-18.7v-0.8c1.9 0 2.8-0.5 2.8-4.2v-20.1c0-1.8-1.3-2.4-3.3-2.4v-0.8c1.5 0.1 3.8 0.3 5.8 0.3h7.9c0.8 0 4.5-0.1 4.5-0.1l-0.1 4.8h-0.8c-0.1-2.9-1.9-3.1-5.3-3.1h-5.4c-0.4 0-0.4 0.1-0.4 0.4v10.1c0 0.3 0 0.4 0.3 0.4h6.7c1.3 0 1.8-0.4 1.9-1.5h0.8v5.9h-0.9c-0.1-1.3-0.1-2.5-2.3-2.8-1.1-0.1-5.7-0.3-6.3-0.3-0.3 0-0.3 0.1-0.3 0.3v10.7c0.1 1.9 0.1 1.9 4.9 1.9 1.5 0 4.9 0 5.8-0.4 1.1-0.5 1.5-1.5 1.6-3.1h0.9zm-23.1 0h-3.3c-3.9 0-5.3-2.6-7.4-5.9-1.8-2.8-3.6-6.8-6-6.9l-1.8-0.1c-0.3 0-0.3 0-0.3 0.4v7.3c0 4.4 0.8 4.7 3.6 4.7v0.8h-9.4v-0.6c2.3-0.1 2.8-0.4 2.8-4.7v-19.8c0-2-1.3-2.5-3.3-2.5v-0.8h9.8c5.3 0 8.8 2.4 8.8 6.9 0 3.6-3 6.8-6.3 7.8 2.8 1 5 7.4 7.4 9.8 2.4 2.5 3.3 2.8 5.3 2.8zm-15.1-13.9c3.4 0 5.5-2.5 5.5-6.4 0-4.1-2.5-6.5-6.4-6.5-2.1 0-2.8 0-2.8 0.6v11.4c0 0.4 0 0.5 0.6 0.6 0.4 0.2 2.3 0.3 3.1 0.3zm-15.8 8.7c-1.4 3.3-4.7 5.5-9.8 5.5-8.8 0-14.2-6-14.2-14.5 0-7.8 5.5-14.6 14.7-14.6 2.8 0 5.3 0.5 8.3 1.8 0.4 0.1 0.5 0.3 0.5 0.6l-0.3 5.7h-0.6c0-1.6-0.4-3.5-1.6-4.5-1.8-1.4-3.6-2.1-6.9-2.1-7.4 0-10.8 5.7-10.8 12.5 0 6.8 3.6 13.7 11.3 13.7 4.3 0 7.2-1.6 8.6-4.4 0.4-0.6 0.4-0.8 0.8-0.6 0.2 0.2 0.2 0.3 0 0.9zm-29.9 0.4v-0.1zm-0.1 4.8h-18.7v-0.8c1.9 0 2.8-0.5 2.8-4.2v-20.1c0-1.8-1.3-2.4-3.3-2.4v-0.8c1.5 0.1 3.8 0.3 5.8 0.3h7.9c0.8 0 4.5-0.1 4.5-0.1l-0.1 4.8h-0.8c-0.1-2.9-1.9-3.1-5.3-3.1h-5.4c-0.4 0-0.4 0.1-0.4 0.4v10.1c0 0.3 0 0.4 0.3 0.4h6.7c1.3 0 1.8-0.4 1.9-1.5h0.8v5.9h-0.9c-0.1-1.3-0.1-2.5-2.3-2.8-1.1-0.1-5.7-0.3-6.3-0.3-0.3 0-0.3 0.1-0.3 0.3v10.7c0.1 1.9 0.1 1.9 4.9 1.9 1.5 0 4.9 0 5.8-0.4 1.1-0.5 1.5-1.5 1.6-3.1h0.9zm-43.7-1.3v-5.8h0.8c0.4 4.8 3.6 6.3 7.4 6.3 4.4 0 6.9-2.9 6.9-5.8 0-3.4-2.3-5.5-6.8-8.4-6.2-3.9-7.5-6.9-7.5-9.7 0-4.5 3.4-7.8 9.2-7.8 3.1 0 6.7 1.3 6.7 1.3v4.8h-0.8c-0.1-0.8-0.3-1.6-0.9-2.5-0.3-0.5-1.6-2.4-6-2.4-3.4 0-5.9 2.3-5.9 5.3 0 3 2.3 4.8 7.3 8.1 4.9 3.3 7.3 6.4 7.3 9.7 0 8.2-8.2 8.7-10.2 8.7-4.9 0-7.5-1.8-7.5-1.8zm-32.1 1.7c-2.3 0-4.4-0.1-6.7-1.5v-5.4h0.8c0.1 4.2 2.9 5.5 6.3 5.5 3.8 0 5.8-2.5 5.8-4.8 0-3-1.8-4.8-5.8-7.3-5.4-3.4-6.8-5.9-6.8-8.7 0-3.9 3-6.9 7.9-6.9 2.6 0 4.4 0.5 6.2 1.1v4.4h-0.8c-0.1-0.8-0.3-1.5-0.8-2.4-0.3-0.4-1.4-2-5.2-2-2.9 0-5 1.9-5 4.5 0 2.5 1.9 4 6.3 6.9 4.3 2.9 6.4 5.7 6.4 8.6 0.2 4.8-3.3 8-8.6 8zm-13.1-28.3c0 2.5-1.8 4.3-4.5 4.7v-0.6c2.1-0.4 3-1.6 3-2.6 0-0.9-0.5-1.5-1.6-2.1-0.8-0.4-1.3-0.8-1.3-1.5 0-0.8 0.8-1.4 1.5-1.4 1.4-0.1 2.9 1.3 2.9 3.5zm-13.2 27.2c1.4-0.1 1.9-0.4 1.9-0.9 0-0.4 0-0.5-0.4-1.5l-2.9-7.8c-0.1-0.1-0.1-0.3-0.4-0.3h-7.9c-0.3 0-0.3 0.1-0.4 0.3l-2 5.9c-0.3 0.6-0.8 2.1-0.8 3 0 0.8 0.8 1.1 2.3 1.1v0.8h-8.2l0.1-0.6c2.4-0.3 3.1-1.1 4-3.4l8.6-23.1c0.5-1.3 0.5-1.3 0.8-1.3 0.3 0 0.4 0.1 0.8 1.3l8.8 22.9c0.9 2.3 1.8 3.6 4.3 3.6l0.1 0.8h-8.9v-0.8zm-2-11.8v-0.1c-0.1 0.1 0 0.1 0 0.1zm-3.5-10.2c-0.1-0.3-0.1-0.4-0.3-0.4-0.1 0-0.3 0.1-0.3 0.4l-3.4 9.9v0.1c0 0.1 0.1 0.1 0.1 0.1h7.4zm3.4 10.1q0 0 0.1 0zm-31.7 12.6v-0.6h0.1c2.6 0 2.6-1.8 2.6-5.2v-17.7c0-3.4-0.4-3.9-2.9-4v-0.6h8.8v0.7c-2.8 0-2.8 0.8-2.8 5.2v16.6c0 4.1 0.3 5 3.6 5v0.6zm-5.9 0h-3.3c-3.9 0-5.3-2.6-7.4-5.9-1.8-2.8-3.6-6.8-6-6.9l-1.8-0.1c-0.3 0-0.3 0-0.3 0.4v7.3c0 4.4 0.8 4.7 3.6 4.7v0.8h-9.3v-0.6c2.3-0.1 2.8-0.4 2.8-4.7v-19.8c0-2-1.3-2.5-3.3-2.5v-0.8h9.8c5.3 0 8.8 2.4 8.8 6.9 0 3.6-3 6.8-6.3 7.8 2.8 1 5 7.4 7.4 9.8 2.4 2.5 3.3 2.8 5.3 2.8zm-15.1-13.9c3.4 0 5.5-2.5 5.5-6.4 0-4.1-2.5-6.5-6.4-6.5-2.1 0-2.8 0-2.8 0.6v11.4c0 0.4 0 0.5 0.6 0.6 0.3 0.2 2.2 0.3 3.1 0.3zm-30.8 14.4c-10.1 0-14.3-7.9-14.3-14.6 0-5.9 4.3-14.5 14.6-14.5 8.3 0 14.5 5.3 14.5 13.8-0.1 8.4-5.9 15.3-14.8 15.3zm-0.2-27.8c-6.2 0-10.8 4-10.8 12.2 0 8.6 5.2 14.1 11.8 14.1 3.3 0 10.2-1.9 10.2-12.7 0.2-8.8-5.2-13.6-11.2-13.6zm-19 3.9h-0.6c-0.3-2.1-0.4-2.9-3.8-2.9h-5.4v20.9c0 4.4 0.5 4.8 3.6 4.8v0.8h-9.6v-0.6c2.4 0 2.8-1.1 2.8-4v-21.9h-4.7c-3.8 0-4.5 0.1-4.7 2.9h-0.8l-0.1-4.8c0 0 3.8 0.3 5.4 0.3h12.8c2.3 0 4 0 5.2-0.3zm-29.1 18.2c-1.4 3.3-4.7 5.5-9.8 5.5-8.8 0-14.2-6-14.2-14.5 0-7.8 5.5-14.6 14.7-14.6 2.8 0 5.3 0.5 8.3 1.8 0.4 0.1 0.5 0.3 0.5 0.6l-0.3 5.7h-0.6c0-1.6-0.4-3.5-1.6-4.5-1.8-1.4-3.6-2.1-6.9-2.1-7.4 0-10.8 5.7-10.8 12.5 0 6.8 3.6 13.7 11.3 13.7 4.3 0 7.2-1.6 8.6-4.4 0.3-0.6 0.4-0.8 0.8-0.6 0.2 0.2 0.2 0.3 0 0.9zm-39.5 5.2v-0.6h0.2c2.6 0 2.6-1.8 2.6-5.2v-17.7c0-3.4-0.4-3.9-2.9-4v-0.6h8.8v0.7c-2.8 0-2.8 0.8-2.8 5.2v16.6c0 4.1 0.3 5 3.6 5v0.6zm-33.1-28.5c-1-2.5-2.1-3-4.3-3v-0.6h9.6v0.5c-1.6 0.1-2.3 0.4-2.3 1 0 0.9 0.4 1.6 9.7 25.9l9.1-22.9c0.4-1.1 0.9-2.3 0.9-3 0-1-1.3-1-2.3-1v-0.6h8.1v0.6c-2.4 0.3-3.1 0.8-4 3l-11.9 28.2c-0.3 0.5-0.4 0.8-0.6 0.8-0.3 0-0.5-0.3-0.6-0.6z"/>
		</g>
	</g>
</svg>